<mxfile host="app.diagrams.net" modified="2021-09-25T18:12:59.840Z" agent="5.0 (Windows NT 10.0; Win64; x64) AppleWebKit/537.36 (KHTML, like Gecko) Chrome/93.0.4577.82 Safari/537.36" etag="Nd1hzA8BGugRNCzeaujy" version="15.3.1" type="github">
  <diagram id="R2lEEEUBdFMjLlhIrx00" name="Page-1">
    <mxGraphModel dx="1422" dy="762" grid="1" gridSize="10" guides="1" tooltips="1" connect="1" arrows="1" fold="1" page="1" pageScale="1" pageWidth="850" pageHeight="1100" math="0" shadow="0" extFonts="Permanent Marker^https://fonts.googleapis.com/css?family=Permanent+Marker">
      <root>
        <mxCell id="0" />
        <mxCell id="1" parent="0" />
        <mxCell id="MPXFbwbHxvT4QIn963Ap-2" value="User" style="whiteSpace=wrap;html=1;align=center;" vertex="1" parent="1">
          <mxGeometry x="590" y="90" width="100" height="40" as="geometry" />
        </mxCell>
        <mxCell id="MPXFbwbHxvT4QIn963Ap-4" value="UserName" style="ellipse;whiteSpace=wrap;html=1;align=center;fontStyle=4;" vertex="1" parent="1">
          <mxGeometry x="570" y="20" width="90" height="30" as="geometry" />
        </mxCell>
        <mxCell id="MPXFbwbHxvT4QIn963Ap-5" value="" style="endArrow=none;html=1;rounded=0;exitX=0.39;exitY=0.975;exitDx=0;exitDy=0;exitPerimeter=0;entryX=0.39;entryY=0;entryDx=0;entryDy=0;entryPerimeter=0;" edge="1" parent="1" source="MPXFbwbHxvT4QIn963Ap-4" target="MPXFbwbHxvT4QIn963Ap-2">
          <mxGeometry relative="1" as="geometry">
            <mxPoint x="340" y="190" as="sourcePoint" />
            <mxPoint x="500" y="190" as="targetPoint" />
          </mxGeometry>
        </mxCell>
        <mxCell id="MPXFbwbHxvT4QIn963Ap-6" value="Password" style="ellipse;whiteSpace=wrap;html=1;align=center;" vertex="1" parent="1">
          <mxGeometry x="680" y="20" width="80" height="30" as="geometry" />
        </mxCell>
        <mxCell id="MPXFbwbHxvT4QIn963Ap-9" value="" style="endArrow=none;html=1;rounded=0;entryX=0.44;entryY=1.05;entryDx=0;entryDy=0;entryPerimeter=0;" edge="1" parent="1" source="MPXFbwbHxvT4QIn963Ap-2" target="MPXFbwbHxvT4QIn963Ap-6">
          <mxGeometry relative="1" as="geometry">
            <mxPoint x="340" y="190" as="sourcePoint" />
            <mxPoint x="500" y="190" as="targetPoint" />
          </mxGeometry>
        </mxCell>
        <mxCell id="MPXFbwbHxvT4QIn963Ap-13" value="FirstName" style="ellipse;whiteSpace=wrap;html=1;align=center;" vertex="1" parent="1">
          <mxGeometry x="740" y="60" width="70" height="30" as="geometry" />
        </mxCell>
        <mxCell id="MPXFbwbHxvT4QIn963Ap-16" value="" style="endArrow=none;html=1;rounded=0;entryX=0;entryY=0.5;entryDx=0;entryDy=0;exitX=1;exitY=0.5;exitDx=0;exitDy=0;" edge="1" parent="1" source="MPXFbwbHxvT4QIn963Ap-2">
          <mxGeometry relative="1" as="geometry">
            <mxPoint x="340" y="290" as="sourcePoint" />
            <mxPoint x="740" y="110" as="targetPoint" />
          </mxGeometry>
        </mxCell>
        <mxCell id="MPXFbwbHxvT4QIn963Ap-18" value="" style="endArrow=none;html=1;rounded=0;entryX=0;entryY=1;entryDx=0;entryDy=0;exitX=1;exitY=0.25;exitDx=0;exitDy=0;" edge="1" parent="1" source="MPXFbwbHxvT4QIn963Ap-2" target="MPXFbwbHxvT4QIn963Ap-13">
          <mxGeometry relative="1" as="geometry">
            <mxPoint x="330" y="330" as="sourcePoint" />
            <mxPoint x="490" y="330" as="targetPoint" />
          </mxGeometry>
        </mxCell>
        <mxCell id="MPXFbwbHxvT4QIn963Ap-19" value="LastName" style="ellipse;whiteSpace=wrap;html=1;align=center;" vertex="1" parent="1">
          <mxGeometry x="740" y="100" width="70" height="30" as="geometry" />
        </mxCell>
        <mxCell id="MPXFbwbHxvT4QIn963Ap-21" value="Question: we need to have users have the option for access w/o logging in, how should this be done?&amp;nbsp;" style="text;html=1;strokeColor=none;fillColor=none;align=center;verticalAlign=middle;whiteSpace=wrap;rounded=0;" vertex="1" parent="1">
          <mxGeometry y="10" width="200" height="70" as="geometry" />
        </mxCell>
        <mxCell id="MPXFbwbHxvT4QIn963Ap-22" value="" style="shape=link;html=1;exitX=0.5;exitY=1;exitDx=0;exitDy=0;startArrow=none;" edge="1" parent="1" source="MPXFbwbHxvT4QIn963Ap-24">
          <mxGeometry width="100" relative="1" as="geometry">
            <mxPoint x="370" y="270" as="sourcePoint" />
            <mxPoint x="640" y="180" as="targetPoint" />
          </mxGeometry>
        </mxCell>
        <mxCell id="MPXFbwbHxvT4QIn963Ap-23" value="RegularUser" style="whiteSpace=wrap;html=1;align=center;" vertex="1" parent="1">
          <mxGeometry x="510" y="210" width="100" height="40" as="geometry" />
        </mxCell>
        <mxCell id="MPXFbwbHxvT4QIn963Ap-26" value="Manager" style="whiteSpace=wrap;html=1;align=center;" vertex="1" parent="1">
          <mxGeometry x="680" y="210" width="90" height="40" as="geometry" />
        </mxCell>
        <mxCell id="MPXFbwbHxvT4QIn963Ap-24" value="d" style="ellipse;whiteSpace=wrap;html=1;aspect=fixed;" vertex="1" parent="1">
          <mxGeometry x="625" y="160" width="30" height="30" as="geometry" />
        </mxCell>
        <mxCell id="MPXFbwbHxvT4QIn963Ap-27" value="" style="shape=link;html=1;exitX=0.5;exitY=1;exitDx=0;exitDy=0;endArrow=none;" edge="1" parent="1" source="MPXFbwbHxvT4QIn963Ap-2" target="MPXFbwbHxvT4QIn963Ap-24">
          <mxGeometry width="100" relative="1" as="geometry">
            <mxPoint x="640" y="130" as="sourcePoint" />
            <mxPoint x="640" y="180" as="targetPoint" />
          </mxGeometry>
        </mxCell>
        <mxCell id="MPXFbwbHxvT4QIn963Ap-28" value="" style="endArrow=none;html=1;rounded=0;entryX=0;entryY=1;entryDx=0;entryDy=0;" edge="1" parent="1" target="MPXFbwbHxvT4QIn963Ap-24">
          <mxGeometry relative="1" as="geometry">
            <mxPoint x="569" y="210" as="sourcePoint" />
            <mxPoint x="500" y="110" as="targetPoint" />
          </mxGeometry>
        </mxCell>
        <mxCell id="MPXFbwbHxvT4QIn963Ap-29" value="" style="endArrow=none;html=1;rounded=0;entryX=1;entryY=1;entryDx=0;entryDy=0;" edge="1" parent="1" source="MPXFbwbHxvT4QIn963Ap-26" target="MPXFbwbHxvT4QIn963Ap-24">
          <mxGeometry relative="1" as="geometry">
            <mxPoint x="340" y="110" as="sourcePoint" />
            <mxPoint x="500" y="110" as="targetPoint" />
          </mxGeometry>
        </mxCell>
      </root>
    </mxGraphModel>
  </diagram>
</mxfile>
